External Loads File
version=1
nRows=62
nColumns=13
Range=5.000000e-03-10 seconds
endheader
time 	forceRightX 	forceRightY 	forceRightZ 	pointRightX 	pointRightY 	pointRightZ 	forceLeftX 	forceLeftY 	forceLeftZ 	pointLeftX 	pointLeftY 	pointLeftZ 		
5.005000 42.233091 12.618443 -0.000000 0.093367 0.435743 -0.102831 -74.231128 769.090712 -0.000000 0.260450 0.190805 -0.345021
5.010000 24.120468 1.139783 -0.000000 0.101651 0.443641 -0.103032 -39.651938 763.754192 -0.000000 0.253124 0.183315 -0.344698
5.015000 5.383051 -9.906905 -0.000000 0.109722 0.451131 -0.103421 -7.702931 752.489972 -0.000000 0.245478 0.176402 -0.344407
5.020000 -13.117195 -20.032884 -0.000000 0.118885 0.458106 -0.103319 23.823264 735.733380 -0.000000 0.237418 0.170009 -0.344566
5.025000 -30.499018 -28.790259 -0.000000 0.127333 0.464797 -0.104049 50.844131 714.208750 -0.000000 0.229070 0.164234 -0.344341
5.030000 -46.195329 -35.724083 -0.000000 0.136465 0.471099 -0.104273 76.188656 688.712531 -0.000000 0.220017 0.159504 -0.345125
5.035000 -59.614317 -40.716742 -0.000000 0.145274 0.476776 -0.104907 96.880710 660.555230 -0.000000 0.211112 0.155018 -0.345074
5.040000 -70.597186 -43.501375 -0.000000 0.154653 0.481914 -0.105269 114.638717 630.583277 -0.000000 0.202472 0.150690 -0.344209
5.045000 -79.100611 -43.978000 -0.000000 0.163883 0.486337 -0.105792 129.737796 599.559593 -0.000000 0.193131 0.147313 -0.344277
5.050000 -85.171577 -42.216676 -0.000000 0.173054 0.490195 -0.106314 142.082496 568.075207 -0.000000 0.183634 0.144776 -0.344244
5.055000 -89.036293 -38.209917 -0.000000 0.182553 0.493428 -0.106836 152.676839 536.142708 -0.000000 0.174022 0.142756 -0.344152
5.060000 -90.855707 -32.257458 -0.000000 0.191814 0.495775 -0.107183 160.666292 503.971739 -0.000000 0.164428 0.141503 -0.344089
5.065000 -90.947564 -24.397715 -0.000000 0.201165 0.497385 -0.107469 166.781011 471.171801 -0.000000 0.154865 0.140984 -0.343969
5.070000 -89.597207 -14.941017 -0.000000 0.210188 0.498314 -0.107661 170.308993 437.765366 -0.000000 0.145520 0.141147 -0.343852
5.075000 -87.222623 -4.025770 -0.000000 0.219020 0.498440 -0.107845 171.757990 403.402764 -0.000000 0.136274 0.142093 -0.343801
5.080000 -84.267251 7.945151 -0.000000 0.227540 0.497843 -0.108096 170.812271 368.189418 -0.000000 0.127490 0.143929 -0.343399
5.085000 -81.218027 20.683997 -0.000000 0.235902 0.496588 -0.108154 168.120294 332.037421 -0.000000 0.118784 0.146409 -0.343251
5.090000 -78.586882 33.691516 -0.000000 0.243791 0.494492 -0.107953 163.515720 295.490457 -0.000000 0.110348 0.149520 -0.342942
5.095000 -76.826645 46.673877 -0.000000 0.251253 0.491407 -0.107451 157.426150 259.084440 -0.000000 0.102223 0.153421 -0.342705
5.100000 -76.310597 59.450382 -0.000000 0.258365 0.487507 -0.106875 150.149959 223.679826 -0.000000 0.094455 0.157825 -0.342356
5.105000 -77.278853 72.073431 -0.000000 0.264925 0.482781 -0.106395 142.123521 190.234267 -0.000000 0.086891 0.162890 -0.342120
5.110000 -79.855212 84.807798 -0.000000 0.271218 0.477296 -0.105846 133.802546 159.725617 -0.000000 0.079759 0.168554 -0.341872
5.115000 -84.161615 98.043953 -0.000000 0.277067 0.471256 -0.105365 125.562921 133.105790 -0.000000 0.072984 0.174740 -0.341691
5.120000 -90.214856 112.365663 -0.000000 0.282590 0.464506 -0.105113 117.935947 110.978917 -0.000000 0.066510 0.181303 -0.341500
5.125000 -98.144894 128.242559 -0.000000 0.287506 0.457159 -0.104992 111.249004 93.829380 -0.000000 0.060440 0.188345 -0.341445
5.130000 -107.939024 146.119558 -0.000000 0.292216 0.449578 -0.104564 105.913532 81.696356 -0.000000 0.054733 0.195683 -0.341403
5.135000 -119.212118 166.489189 -0.000000 0.296659 0.441110 -0.104530 102.392471 74.119492 -0.000000 0.049312 0.203511 -0.341319
5.140000 -131.757540 189.411864 -0.000000 0.300750 0.431651 -0.104401 100.849403 70.585846 -0.000000 0.044427 0.211715 -0.341393
5.145000 -145.207868 214.715471 -0.000000 0.304662 0.421821 -0.104204 101.358859 70.292150 -0.000000 0.039911 0.220336 -0.341412
5.150000 -159.019268 242.020851 -0.000000 0.308268 0.411524 -0.104020 103.853754 72.260753 -0.000000 0.035914 0.229410 -0.341316
5.155000 -172.924106 270.565435 -0.000000 0.311448 0.401025 -0.103612 107.989773 75.629657 -0.000000 0.032471 0.238710 -0.341276
5.160000 -185.946954 300.013943 -0.000000 0.314383 0.390184 -0.103414 113.471269 79.315350 -0.000000 0.029680 0.248497 -0.341250
5.165000 -197.806233 329.706255 -0.000000 0.316938 0.378982 -0.103255 119.700399 82.650049 -0.000000 0.027509 0.258359 -0.341163
5.170000 -208.345156 359.139146 -0.000000 0.318968 0.367888 -0.102983 126.011576 85.148479 -0.000000 0.025930 0.268468 -0.340904
5.175000 -217.529385 387.983188 -0.000000 0.320657 0.356641 -0.102830 131.734001 86.515547 -0.000000 0.025201 0.278276 -0.340917
5.180000 -224.172163 416.723844 -0.000000 0.321801 0.345204 -0.102639 136.533068 86.242360 -0.000000 0.025180 0.288348 -0.340922
5.185000 -228.067461 445.320581 -0.000000 0.322315 0.333873 -0.102482 139.973183 84.350853 -0.000000 0.025829 0.298708 -0.341082
5.190000 -228.745458 473.825889 -0.000000 0.322237 0.322410 -0.102449 141.851361 80.900161 -0.000000 0.027316 0.309076 -0.341157
5.195000 -225.990918 502.096907 -0.000000 0.321645 0.310935 -0.102261 142.089054 76.083557 -0.000000 0.029430 0.319431 -0.341200
5.200000 -219.419698 530.048865 -0.000000 0.320273 0.299377 -0.102814 140.756106 70.076841 -0.000000 0.032164 0.329791 -0.341421
5.205000 -210.208462 556.986615 -0.000000 0.318518 0.288086 -0.102098 137.794389 63.476359 -0.000000 0.035287 0.339968 -0.341362
5.210000 -197.904414 582.927605 -0.000000 0.315878 0.276940 -0.102824 133.427549 56.403909 -0.000000 0.039150 0.350046 -0.341354
5.215000 -183.619780 607.262976 -0.000000 0.312919 0.266268 -0.102252 127.741171 49.307097 -0.000000 0.043557 0.359987 -0.341424
5.220000 -167.113319 629.795666 -0.000000 0.309397 0.255837 -0.102352 120.973654 42.225525 -0.000000 0.048533 0.369681 -0.341411
5.225000 -148.430750 650.113656 -0.000000 0.305550 0.245662 -0.102797 113.295087 35.164620 -0.000000 0.054098 0.379223 -0.341525
5.230000 -127.586376 667.712690 -0.000000 0.300948 0.235783 -0.102967 104.818853 28.018175 -0.000000 0.060153 0.388454 -0.341519
5.235000 -105.384795 681.885775 -0.000000 0.295735 0.226495 -0.103186 95.558845 20.711306 -0.000000 0.066594 0.397417 -0.341565
5.240000 -81.038817 692.200626 -0.000000 0.289782 0.217535 -0.103089 85.513327 12.868878 -0.000000 0.073594 0.406034 -0.341602
5.245000 -55.649711 697.988019 -0.000000 0.283587 0.208936 -0.103307 74.572143 4.372520 -0.000000 0.081118 0.414406 -0.341650
5.250000 -29.657428 698.823084 -0.000000 0.277007 0.200699 -0.103536 62.653598 -4.955823 -0.000000 0.089057 0.422545 -0.341680
5.255000 -3.294046 694.417684 -0.000000 0.269956 0.192970 -0.103707 49.697751 -15.194690 -0.000000 0.097679 0.430276 -0.342170
5.260000 20.836765 684.743461 -0.000000 0.262632 0.185886 -0.103746 35.780071 -26.097218 -0.000000 0.106187 0.437670 -0.342205
5.265000 42.950972 670.201307 -0.000000 0.254860 0.179351 -0.103674 21.070930 -37.458670 -0.000000 0.114667 0.444691 -0.341911
5.270000 63.298855 651.421148 -0.000000 0.246789 0.173509 -0.103593 5.823489 -48.832647 -0.000000 0.123616 0.451134 -0.341859
5.275000 81.627683 629.277642 -0.000000 0.238380 0.168330 -0.103441 -9.593469 -59.592324 -0.000000 0.132717 0.457295 -0.341931
5.280000 97.880312 604.757121 -0.000000 0.229582 0.163604 -0.103298 -24.745026 -69.051342 -0.000000 0.141809 0.463075 -0.341760
5.285000 112.532209 578.712260 -0.000000 0.220455 0.159417 -0.103131 -39.219331 -76.523217 -0.000000 0.151095 0.468417 -0.341444
5.290000 125.285856 551.925888 -0.000000 0.211026 0.155872 -0.103005 -52.500936 -81.462475 -0.000000 0.160267 0.473093 -0.341796
5.295000 137.026670 524.618286 -0.000000 0.201323 0.152955 -0.102911 -64.263780 -83.388756 -0.000000 0.169748 0.477222 -0.341309
5.300000 147.448903 496.867224 -0.000000 0.191464 0.150730 -0.102902 -74.112612 -82.108092 -0.000000 0.179316 0.480648 -0.341343
5.305000 156.440254 468.345295 -0.000000 0.181512 0.149140 -0.102805 -81.829366 -77.634871 -0.000000 0.188971 0.483314 -0.341163
5.310000 163.669140 438.536310 -0.000000 0.171606 0.148236 -0.102748 -87.332033 -70.248688 -0.000000 0.198680 0.485182 -0.341025
